# xmcd
#
# Track frame offsets:
#	150
#	14775
#	25850
#	40725
#	49475
#	63850
#	76050
#	86662
#	97475
#	116900
#	128475
#	136637
#	145725
#	159650
#	169500
#	181425
#	190200
#	205500
#	218475
#	232337
#	241925
#	254325
#
# Disc length: 3532
#
# Revision: 1
# Processed by: cddbd v1.5.1PL0 Copyright (c) Steve Scherf et al.
# Submitted via: CDex 1.50
# Normalized: r0:TDELIM( - )
#
DISCID=320dca16
DTITLE=Various Artist - Wanted: Country Highwaymen
DYEAR=1992
DGENRE=Country
TTITLE0=Kris Kristofferson - The Taker
TTITLE1=Johnny Cash - I Love You Because
TTITLE2=Willie Nelson - And So Will You My Love
TTITLE3=Waylon Jennings - Abilene
TTITLE4=Kris Kristofferson - The Pilgrim
TTITLE5=Johnny Cash - You're The Nearest Thing To Heaven
TTITLE6=Willie Nelson - I Feel Sorry For Him
TTITLE7=Waylon Jennings - Burning Memories
TTITLE8=Kris Kristofferson - Silver Tongued Devil
TTITLE9=Johnny Cash - Big River
TTITLE10=Willie Nelson - Things To Remember
TTITLE11=Waylon Jennings - Mean Old Greyhound Bus
TTITLE12=Kris Kristofferson - Jody and The Kid
TTITLE13=Johnny Cash - Ballad Of A Teenage Queen
TTITLE14=Willie Nelson - I Hope So
TTITLE15=Waylon Jennings - Love's Gonna Live Here
TTITLE16=Kris Kristofferson - Good Soldier
TTITLE17=Johnny Cash - Folsom Prison Blues
TTITLE18=Willie Nelson - Home Is Where You're Happy
TTITLE19=Waylon Jennings - Building Heartaches
TTITLE20=Kris Kristofferson - Breakdown
TTITLE21=Johnny Cash - Cold, Cold Heart
EXTD=YEAR: 1992
EXTT0=
EXTT1=
EXTT2=
EXTT3=
EXTT4=
EXTT5=
EXTT6=
EXTT7=
EXTT8=
EXTT9=
EXTT10=
EXTT11=
EXTT12=
EXTT13=
EXTT14=
EXTT15=
EXTT16=
EXTT17=
EXTT18=
EXTT19=
EXTT20=
EXTT21=
PLAYORDER=
